:SAMPLES-PER-SECOND 30
:FULLY-SPECIFIED
:DEGREES
17
root  82.5497 40.2821 -3.89052 177.211 -87.4764 -177.342
RightUpLeg  0.223566 -8.85748 -5.93829
RightLeg  4.37647 -4.74723 4.03599
RightFoot  -2.85149 0.0495147 -0.927732
RightToes  0.00048216 0.542163 -0.142577
Spine  3.57107 -0.129406 2.1417
Spine1  1.77666 0.188771 -1.38472
HEad  0.582449 -0.901488 1.86219
LeftShoulder1  1.02688 -1.09086 -15.3976
LeftArm  -20.9383 2.05825 -2.95467
LeftForeArm  11.8723 -2.2363 -1.34268
LeftHand  -0.25398 0.0180481 5.50724
RightShoulder  0.667219 0.0517457 11.6454
RightArm  -24.6492 2.71661 4.39908
RightForeArm  -2.32719 0.402526 2.30935
RightHand  -2.19951 7.57024 -19.9326
LeftUpLeg  0.902879 5.84021 3.38082
LeftLeg  4.91937 14.9715 -2.9445
LeftFoot  -5.70878 0.0471734 -0.282635
LeftToes  1.06246e-005 4.65856e-005 -8.18504e-006
18
root  82.5049 40.2539 -3.78418 175.082 -87.1751 -175.468
RightUpLeg  0.344039 -8.81857 -5.99452
RightLeg  4.73084 -4.40949 3.91393
RightFoot  -3.06905 0.0298418 -0.701443
RightToes  0.00048216 0.542163 -0.142577
Spine  4.06081 -0.104726 2.30463
Spine1  1.83756 0.222719 -1.34945
HEad  1.13554 -2.06 1.92182
LeftShoulder1  1.14797 -1.39852 -16.568
LeftArm  -22.2955 3.19985 -3.7457
LeftForeArm  12.6295 -4.17307 -0.946947
LeftHand  -0.25398 0.0180481 5.50724
RightShoulder  0.761099 0.34995 12.7066
RightArm  -25.1241 1.88345 5.33658
RightForeArm  -5.30566 2.13254 2.59441
RightHand  -2.34059 7.80235 -20.806
LeftUpLeg  0.922153 6.11951 3.29521
LeftLeg  5.7556 14.9702 -2.55807
LeftFoot  -6.40317 0.0585666 -0.455598
LeftToes  1.06246e-005 4.65856e-005 -8.18504e-006
19
root  82.4576 40.2204 -3.65137 173.811 -86.9365 -174.456
RightUpLeg  0.284913 -8.78646 -6.09827
RightLeg  5.48685 -4.21126 3.67551
RightFoot  -3.38216 -0.00213259 -0.299061
RightToes  0.00048216 0.542163 -0.142577
Spine  4.30701 -0.244566 2.87259
Spine1  2.37254 0.239117 -2.05197
HEad  1.75681 -2.90221 2.25621
LeftShoulder1  1.27568 -1.66808 -17.924
LeftArm  -23.4103 4.23427 -4.88169
LeftForeArm  12.8927 -6.36531 -0.792855
LeftHand  -0.25398 0.0180481 5.50724
RightShoulder  0.990987 1.12175 14.5656
RightArm  -25.0083 0.484378 6.27919
RightForeArm  -6.62185 4.38006 3.0132
RightHand  -2.42324 8.13407 -21.0087
LeftUpLeg  0.954115 6.45339 3.17736
LeftLeg  6.57577 14.9095 -2.24481
LeftFoot  -7.0658 0.0608028 -0.487765
LeftToes  1.06246e-005 4.65856e-005 -8.18504e-006
20
root  82.4202 40.1586 -3.50932 173.18 -86.54 -174.117
RightUpLeg  -0.200115 -9.22508 -6.17918
RightLeg  7.11215 -3.37007 3.21013
RightFoot  -4.17197 -0.0463658 0.292365
RightToes  0.00048216 0.542163 -0.142577
Spine  4.58047 -0.333316 3.26932
Spine1  3.13784 0.275698 -2.64768
HEad  2.33552 -3.3761 2.59106
LeftShoulder1  1.46419 -2.05144 -19.7383
LeftArm  -23.7329 5.00145 -6.20374
LeftForeArm  13.5084 -8.00541 -0.89901
LeftHand  -0.25398 0.0180481 5.50724
RightShoulder  1.2558 1.89745 16.5836
RightArm  -24.3568 -0.994709 7.69511
RightForeArm  -5.65172 6.80262 3.46106
RightHand  -2.39791 8.10843 -20.8351
LeftUpLeg  1.01708 6.87825 3.1797
LeftLeg  7.48443 14.8215 -2.14586
LeftFoot  -7.90703 0.0659807 -0.623272
LeftToes  1.06246e-005 4.65856e-005 -8.18504e-006
21
root  82.4086 40.0544 -3.38673 174.062 -85.7053 -175.365
RightUpLeg  -1.49568 -10.988 -6.06433
RightLeg  10.1811 -0.703417 2.27824
RightFoot  -5.37749 -0.0949508 1.13369
RightToes  0.00048216 0.542163 -0.142577
Spine  5.43216 -0.145099 2.90263
Spine1  3.43489 0.394717 -2.42802
HEad  2.7786 -3.93606 2.5766
LeftShoulder1  1.76518 -2.6761 -22.1034
LeftArm  -23.0567 5.5096 -7.61109
LeftForeArm  14.848 -8.52853 -1.16373
LeftHand  -0.25398 0.0180481 5.50724
RightShoulder  1.51725 2.5431 18.5755
RightArm  -23.1094 -2.34862 9.52271
RightForeArm  -3.811 9.12679 3.95322
RightHand  -2.32411 7.68489 -20.8413
LeftUpLeg  1.13969 7.50071 3.32944
LeftLeg  8.56225 14.8839 -2.26675
LeftFoot  -9.04545 0.0746421 -1.02718
LeftToes  1.06246e-005 4.65856e-005 -8.18504e-006
22
root  82.4152 39.9197 -3.28392 177.077 -84.5623 -178.816
RightUpLeg  -3.88171 -13.0225 -5.85991
RightLeg  15.0299 2.03022 1.06233
RightFoot  -6.13827 -0.154048 2.45702
RightToes  0.00048216 0.542163 -0.142577
Spine  6.87819 0.160907 2.03883
Spine1  3.17641 0.563956 -2.0394
HEad  2.98459 -4.68937 2.42407
LeftShoulder1  2.13726 -3.42991 -24.5098
LeftArm  -21.8292 5.78974 -9.44124
LeftForeArm  15.852 -7.94071 -1.47405
LeftHand  -0.25398 0.0180481 5.50724
RightShoulder  1.85012 3.24338 21.0655
RightArm  -21.1373 -3.58414 11.293
RightForeArm  -2.16159 11.1899 4.44439
RightHand  -2.26496 7.36843 -20.8094
LeftUpLeg  1.2639 8.13152 3.28022
LeftLeg  9.80092 15.3737 -2.30275
LeftFoot  -10.2815 0.0748596 -1.39407
LeftToes  1.06246e-005 4.65856e-005 -8.18504e-006
23
root  82.4049 39.7879 -3.17914 -179.221 -83.5706 177.031
RightUpLeg  -6.86851 -12.796 -6.07759
RightLeg  20.8552 1.01065 0.115968
RightFoot  -5.66179 -0.254171 4.30234
RightToes  0.00048216 0.542163 -0.142577
Spine  8.30087 0.210396 1.33321
Spine1  3.09862 0.579994 -2.17204
HEad  2.82809 -5.26614 2.45109
LeftShoulder1  2.5427 -4.22345 -26.6856
LeftArm  -20.5938 5.73513 -11.9176
LeftForeArm  15.4721 -6.37986 -1.7518
LeftHand  -0.25398 0.0180481 5.50724
RightShoulder  2.29025 4.06727 24.0711
RightArm  -18.6853 -4.6629 13.121
RightForeArm  -0.607326 12.833 4.79571
RightHand  -2.24043 7.45581 -20.4619
LeftUpLeg  1.36342 8.4252 2.77979
LeftLeg  10.991 16.133 -2.00507
LeftFoot  -11.3241 0.0683219 -1.45017
LeftToes  1.06246e-005 4.65856e-005 -8.18504e-006
24
root  82.3423 39.6887 -3.08451 -175.97 -83.0252 173.419
RightUpLeg  -9.62954 -12.86 -6.5324
RightLeg  26.0391 -1.28108 -0.897512
RightFoot  -4.6394 -0.381353 5.98705
RightToes  0.00048216 0.542163 -0.142577
Spine  9.13626 -0.115477 0.738188
Spine1  3.85252 0.214191 -2.2445
HEad  2.26525 -5.27432 2.4935
LeftShoulder1  2.9723 -4.98537 -28.8771
LeftArm  -19.3938 5.16633 -14.9658
LeftForeArm  14.307 -4.1855 -2.04489
LeftHand  -0.25398 0.0180481 5.50724
RightShoulder  2.72782 4.85322 26.5926
RightArm  -16.4133 -5.489 15.9325
RightForeArm  0.983834 13.8366 4.97517
RightHand  -2.26948 7.63113 -20.4498
LeftUpLeg  1.51527 8.33446 2.06762
LeftLeg  11.7971 16.6547 -1.58283
LeftFoot  -12.0747 0.0627593 -1.4908
LeftToes  1.06246e-005 4.65856e-005 -8.18504e-006
